# xmcd
#
# Track frame offsets:
#	150
#	15771
#	36642
#	55193
#	73549
#	93255
#	105058
#	119772
#	135841
#	138387
#	150710
#
# Disc length: 2264 seconds
#
# Revision: 0
# Processed by: cddbd v1.4PL0 Copyright (c) Steve Scherf et al.
# Submitted via: dBpowerAMP V4.0
#
DISCID=8508d60b
DTITLE=Anderson Locke Band - Aperture
DYEAR=1900
DGENRE=Blues
TTITLE0=Sweet Water
TTITLE1=Better Blue
TTITLE2=Realize
TTITLE3=Heart To Need
TTITLE4=I'm Calling
TTITLE5=Juice Too
TTITLE6=Slow Down Baby
TTITLE7=Give Me Tonight
TTITLE8=Bad Morals
TTITLE9=Morality Man (remix)
TTITLE10=Why
EXTD=Produced by Mountain Productions
EXTT0=
EXTT1=
EXTT2=
EXTT3=
EXTT4=
EXTT5=
EXTT6=
EXTT7=
EXTT8=
EXTT9=
EXTT10=
PLAYORDER=
